<?xml version="1.0" encoding="utf-8" standalone="yes"?> <svg width="1000" height="1000" viewBox="-1 -1 27 27" xmlns="http://www.w3.org/2000/svg" xmlns:xlink="http://www.w3.org/1999/xlink" shape-rendering="geometricPrecision" id="qr code"><rect id="qr background" fill-opacity="1" fill="rgb(255, 255, 255)" x="-1" y="-1" width="27" height="27" ry="1.3499999999999999"></rect><path fill-opacity="1" fill="rgb(0, 121, 107)" id="qr dark pixels" fill-rule="evenodd" d="M 8 0.4a 0.4,0.4 0 0 1 0.4,-0.4L 8.6 0a 0.4,0.4 0 0 1 0.4,0.4L 9 1.6a 0.4,0.4 0 0 0 0.4,0.4L 9.6 2a 0.4,0.4 0 0 1 0.4,0.4L 10 2.6a 0.4,0.4 0 0 0 0.4,0.4L 10.6 3a 0.4,0.4 0 0 1 0.4,0.4L 11 6.6a 0.4,0.4 0 0 0 0.4,0.4L 11.6 7a 0.4,0.4 0 0 1 0.4,0.4L 12 7.6a 0.4,0.4 0 0 1 -0.4,0.4L 11.4 8a 0.4,0.4 0 0 0 -0.4,0.4L 11 8.6a 0.4,0.4 0 0 1 -0.4,0.4L 10.4 9a 0.4,0.4 0 0 1 -0.4,-0.4L 10 6.4a 0.4,0.4 0 0 0 -0.4,-0.4L 9.4 6a 0.4,0.4 0 0 0 -0.4,0.4L 9 6.6a 0.4,0.4 0 0 1 -0.4,0.4L 8.4 7a 0.4,0.4 0 0 1 -0.4,-0.4L 8 5.4a 0.4,0.4 0 0 1 0.4,-0.4L 8.6 5a 0.4,0.4 0 0 0 0.4,-0.4L 9 4.4a 0.4,0.4 0 0 0 -0.4,-0.4L 8.4 4a 0.4,0.4 0 0 1 -0.4,-0.4z M 14 0.4a 0.4,0.4 0 0 1 0.4,-0.4L 16.6 0a 0.4,0.4 0 0 1 0.4,0.4L 17 0.6a 0.4,0.4 0 0 1 -0.4,0.4L 15.4 1a 0.4,0.4 0 0 0 -0.4,0.4L 15 3.6a 0.4,0.4 0 0 0 0.4,0.4L 15.6 4a 0.4,0.4 0 0 1 0.4,0.4L 16 4.6a 0.4,0.4 0 0 1 -0.4,0.4L 14.4 5a 0.4,0.4 0 0 1 -0.4,-0.4L 14 4.4a 0.4,0.4 0 0 0 -0.4,-0.4L 13.4 4a 0.4,0.4 0 0 0 -0.4,0.4L 13 4.6a 0.4,0.4 0 0 1 -0.4,0.4L 12.4 5a 0.4,0.4 0 0 1 -0.4,-0.4L 12 2.4a 0.4,0.4 0 0 0 -0.4,-0.4L 11.4 2a 0.4,0.4 0 0 1 -0.4,-0.4L 11 1.4a 0.4,0.4 0 0 1 0.4,-0.4L 13.6 1a 0.4,0.4 0 0 0 0.4,-0.4zM 13 2.4a 0.4,0.4 0 0 1 0.4,-0.4L 13.6 2a 0.4,0.4 0 0 1 0.4,0.4L 14 2.6a 0.4,0.4 0 0 1 -0.4,0.4L 13.4 3a 0.4,0.4 0 0 1 -0.4,-0.4z M 16 3.4a 0.4,0.4 0 0 1 0.4,-0.4L 16.6 3a 0.4,0.4 0 0 1 0.4,0.4L 17 3.6a 0.4,0.4 0 0 1 -0.4,0.4L 16.4 4a 0.4,0.4 0 0 1 -0.4,-0.4z M 16 5.4a 0.4,0.4 0 0 1 0.4,-0.4L 16.6 5a 0.4,0.4 0 0 1 0.4,0.4L 17 8.6a 0.4,0.4 0 0 0 0.4,0.4L 17.6 9a 0.4,0.4 0 0 1 0.4,0.4L 18 10.6a 0.4,0.4 0 0 0 0.4,0.4L 18.6 11a 0.4,0.4 0 0 1 0.4,0.4L 19 12.6a 0.4,0.4 0 0 1 -0.4,0.4L 18.4 13a 0.4,0.4 0 0 1 -0.4,-0.4L 18 12.4a 0.4,0.4 0 0 0 -0.4,-0.4L 17.4 12a 0.4,0.4 0 0 1 -0.4,-0.4L 17 10.4a 0.4,0.4 0 0 0 -0.4,-0.4L 16.4 10a 0.4,0.4 0 0 0 -0.4,0.4L 16 11.6a 0.4,0.4 0 0 1 -0.4,0.4L 14.4 12a 0.4,0.4 0 0 1 -0.4,-0.4L 14 11.4a 0.4,0.4 0 0 0 -0.4,-0.4L 13.4 11a 0.4,0.4 0 0 1 -0.4,-0.4L 13 10.4a 0.4,0.4 0 0 1 0.4,-0.4L 13.6 10a 0.4,0.4 0 0 0 0.4,-0.4L 14 6.4a 0.4,0.4 0 0 1 0.4,-0.4L 14.6 6a 0.4,0.4 0 0 1 0.4,0.4L 15 8.6a 0.4,0.4 0 0 0 0.4,0.4L 15.6 9a 0.4,0.4 0 0 0 0.4,-0.4z M 12 6.4a 0.4,0.4 0 0 1 0.4,-0.4L 12.6 6a 0.4,0.4 0 0 1 0.4,0.4L 13 6.6a 0.4,0.4 0 0 1 -0.4,0.4L 12.4 7a 0.4,0.4 0 0 1 -0.4,-0.4z M 0 8.4a 0.4,0.4 0 0 1 0.4,-0.4L 1.6 8a 0.4,0.4 0 0 1 0.4,0.4L 2 8.6a 0.4,0.4 0 0 0 0.4,0.4L 2.6 9a 0.4,0.4 0 0 1 0.4,0.4L 3 9.6a 0.4,0.4 0 0 1 -0.4,0.4L 2.4 10a 0.4,0.4 0 0 0 -0.4,0.4L 2 10.6a 0.4,0.4 0 0 1 -0.4,0.4L 1.4 11a 0.4,0.4 0 0 0 -0.4,0.4L 1 13.6a 0.4,0.4 0 0 1 -0.4,0.4L 0.4 14a 0.4,0.4 0 0 1 -0.4,-0.4L 0 10.4a 0.4,0.4 0 0 1 0.4,-0.4L 0.6 10a 0.4,0.4 0 0 0 0.4,-0.4L 1 9.4a 0.4,0.4 0 0 0 -0.4,-0.4L 0.4 9a 0.4,0.4 0 0 1 -0.4,-0.4z M 4 8.4a 0.4,0.4 0 0 1 0.4,-0.4L 6.6 8a 0.4,0.4 0 0 1 0.4,0.4L 7 8.6a 0.4,0.4 0 0 1 -0.4,0.4L 4.4 9a 0.4,0.4 0 0 1 -0.4,-0.4z M 12 8.4a 0.4,0.4 0 0 1 0.4,-0.4L 12.6 8a 0.4,0.4 0 0 1 0.4,0.4L 13 8.6a 0.4,0.4 0 0 1 -0.4,0.4L 12.4 9a 0.4,0.4 0 0 1 -0.4,-0.4z M 19 8.4a 0.4,0.4 0 0 1 0.4,-0.4L 19.6 8a 0.4,0.4 0 0 1 0.4,0.4L 20 8.6a 0.4,0.4 0 0 1 -0.4,0.4L 19.4 9a 0.4,0.4 0 0 1 -0.4,-0.4z M 21 8.4a 0.4,0.4 0 0 1 0.4,-0.4L 24.6 8a 0.4,0.4 0 0 1 0.4,0.4L 25 8.6a 0.4,0.4 0 0 1 -0.4,0.4L 24.4 9a 0.4,0.4 0 0 0 -0.4,0.4L 24 9.6a 0.4,0.4 0 0 1 -0.4,0.4L 23.4 10a 0.4,0.4 0 0 1 -0.4,-0.4L 23 9.4a 0.4,0.4 0 0 0 -0.4,-0.4L 22.4 9a 0.4,0.4 0 0 0 -0.4,0.4L 22 9.6a 0.4,0.4 0 0 0 0.4,0.4L 22.6 10a 0.4,0.4 0 0 1 0.4,0.4L 23 10.6a 0.4,0.4 0 0 0 0.4,0.4L 23.6 11a 0.4,0.4 0 0 1 0.4,0.4L 24 11.6a 0.4,0.4 0 0 0 0.4,0.4L 24.6 12a 0.4,0.4 0 0 1 0.4,0.4L 25 12.6a 0.4,0.4 0 0 1 -0.4,0.4L 24.4 13a 0.4,0.4 0 0 0 -0.4,0.4L 24 13.6a 0.4,0.4 0 0 1 -0.4,0.4L 23.4 14a 0.4,0.4 0 0 1 -0.4,-0.4L 23 13.4a 0.4,0.4 0 0 0 -0.4,-0.4L 21.4 13a 0.4,0.4 0 0 1 -0.4,-0.4L 21 12.4a 0.4,0.4 0 0 1 0.4,-0.4L 21.6 12a 0.4,0.4 0 0 0 0.4,-0.4L 22 11.4a 0.4,0.4 0 0 0 -0.4,-0.4L 21.4 11a 0.4,0.4 0 0 1 -0.4,-0.4L 21 10.4a 0.4,0.4 0 0 0 -0.4,-0.4L 20.4 10a 0.4,0.4 0 0 1 -0.4,-0.4L 20 9.4a 0.4,0.4 0 0 1 0.4,-0.4L 20.6 9a 0.4,0.4 0 0 0 0.4,-0.4z M 7 9.4a 0.4,0.4 0 0 1 0.4,-0.4L 8.6 9a 0.4,0.4 0 0 1 0.4,0.4L 9 9.6a 0.4,0.4 0 0 0 0.4,0.4L 10.6 10a 0.4,0.4 0 0 1 0.4,0.4L 11 10.6a 0.4,0.4 0 0 1 -0.4,0.4L 10.4 11a 0.4,0.4 0 0 0 -0.4,0.4L 10 11.6a 0.4,0.4 0 0 1 -0.4,0.4L 9.4 12a 0.4,0.4 0 0 0 -0.4,0.4L 9 12.6a 0.4,0.4 0 0 1 -0.4,0.4L 8.4 13a 0.4,0.4 0 0 1 -0.4,-0.4L 8 12.4a 0.4,0.4 0 0 0 -0.4,-0.4L 7.4 12a 0.4,0.4 0 0 1 -0.4,-0.4L 7 11.4a 0.4,0.4 0 0 0 -0.4,-0.4L 6.4 11a 0.4,0.4 0 0 1 -0.4,-0.4L 6 10.4a 0.4,0.4 0 0 1 0.4,-0.4L 6.6 10a 0.4,0.4 0 0 0 0.4,-0.4z M 3 10.4a 0.4,0.4 0 0 1 0.4,-0.4L 4.6 10a 0.4,0.4 0 0 1 0.4,0.4L 5 10.6a 0.4,0.4 0 0 0 0.4,0.4L 5.6 11a 0.4,0.4 0 0 1 0.4,0.4L 6 11.6a 0.4,0.4 0 0 1 -0.4,0.4L 3.4 12a 0.4,0.4 0 0 1 -0.4,-0.4z M 19 10.4a 0.4,0.4 0 0 1 0.4,-0.4L 19.6 10a 0.4,0.4 0 0 1 0.4,0.4L 20 10.6a 0.4,0.4 0 0 1 -0.4,0.4L 19.4 11a 0.4,0.4 0 0 1 -0.4,-0.4z M 12 11.4a 0.4,0.4 0 0 1 0.4,-0.4L 12.6 11a 0.4,0.4 0 0 1 0.4,0.4L 13 13.6a 0.4,0.4 0 0 1 -0.4,0.4L 12.4 14a 0.4,0.4 0 0 1 -0.4,-0.4L 12 13.4a 0.4,0.4 0 0 0 -0.4,-0.4L 11.4 13a 0.4,0.4 0 0 1 -0.4,-0.4L 11 12.4a 0.4,0.4 0 0 1 0.4,-0.4L 11.6 12a 0.4,0.4 0 0 0 0.4,-0.4z M 2 12.4a 0.4,0.4 0 0 1 0.4,-0.4L 2.6 12a 0.4,0.4 0 0 1 0.4,0.4L 3 13.6a 0.4,0.4 0 0 0 0.4,0.4L 6.6 14a 0.4,0.4 0 0 1 0.4,0.4L 7 14.6a 0.4,0.4 0 0 1 -0.4,0.4L 5.4 15a 0.4,0.4 0 0 0 -0.4,0.4L 5 15.6a 0.4,0.4 0 0 1 -0.4,0.4L 4.4 16a 0.4,0.4 0 0 1 -0.4,-0.4L 4 15.4a 0.4,0.4 0 0 0 -0.4,-0.4L 3.4 15a 0.4,0.4 0 0 0 -0.4,0.4L 3 15.6a 0.4,0.4 0 0 1 -0.4,0.4L 2.4 16a 0.4,0.4 0 0 1 -0.4,-0.4z M 6 12.4a 0.4,0.4 0 0 1 0.4,-0.4L 6.6 12a 0.4,0.4 0 0 1 0.4,0.4L 7 12.6a 0.4,0.4 0 0 1 -0.4,0.4L 6.4 13a 0.4,0.4 0 0 1 -0.4,-0.4z M 7 13.4a 0.4,0.4 0 0 1 0.4,-0.4L 7.6 13a 0.4,0.4 0 0 1 0.4,0.4L 8 13.6a 0.4,0.4 0 0 1 -0.4,0.4L 7.4 14a 0.4,0.4 0 0 1 -0.4,-0.4z M 9 13.4a 0.4,0.4 0 0 1 0.4,-0.4L 10.6 13a 0.4,0.4 0 0 1 0.4,0.4L 11 13.6a 0.4,0.4 0 0 0 0.4,0.4L 11.6 14a 0.4,0.4 0 0 1 0.4,0.4L 12 15.6a 0.4,0.4 0 0 1 -0.4,0.4L 11.4 16a 0.4,0.4 0 0 1 -0.4,-0.4L 11 15.4a 0.4,0.4 0 0 0 -0.4,-0.4L 10.4 15a 0.4,0.4 0 0 1 -0.4,-0.4L 10 14.4a 0.4,0.4 0 0 0 -0.4,-0.4L 9.4 14a 0.4,0.4 0 0 1 -0.4,-0.4z M 14 13.4a 0.4,0.4 0 0 1 0.4,-0.4L 16.6 13a 0.4,0.4 0 0 1 0.4,0.4L 17 14.6a 0.4,0.4 0 0 1 -0.4,0.4L 16.4 15a 0.4,0.4 0 0 0 -0.4,0.4L 16 15.6a 0.4,0.4 0 0 1 -0.4,0.4L 14.4 16a 0.4,0.4 0 0 1 -0.4,-0.4L 14 15.4a 0.4,0.4 0 0 1 0.4,-0.4L 14.6 15a 0.4,0.4 0 0 0 0.4,-0.4L 15 14.4a 0.4,0.4 0 0 0 -0.4,-0.4L 14.4 14a 0.4,0.4 0 0 1 -0.4,-0.4z M 20 13.4a 0.4,0.4 0 0 1 0.4,-0.4L 20.6 13a 0.4,0.4 0 0 1 0.4,0.4L 21 13.6a 0.4,0.4 0 0 0 0.4,0.4L 22.6 14a 0.4,0.4 0 0 1 0.4,0.4L 23 14.6a 0.4,0.4 0 0 0 0.4,0.4L 23.6 15a 0.4,0.4 0 0 1 0.4,0.4L 24 15.6a 0.4,0.4 0 0 1 -0.4,0.4L 23.4 16a 0.4,0.4 0 0 0 -0.4,0.4L 23 16.6a 0.4,0.4 0 0 1 -0.4,0.4L 21.4 17a 0.4,0.4 0 0 0 -0.4,0.4L 21 18.6a 0.4,0.4 0 0 0 0.4,0.4L 24.6 19a 0.4,0.4 0 0 1 0.4,0.4L 25 19.6a 0.4,0.4 0 0 1 -0.4,0.4L 23.4 20a 0.4,0.4 0 0 0 -0.4,0.4L 23 20.6a 0.4,0.4 0 0 0 0.4,0.4L 24.6 21a 0.4,0.4 0 0 1 0.4,0.4L 25 21.6a 0.4,0.4 0 0 1 -0.4,0.4L 24.4 22a 0.4,0.4 0 0 0 -0.4,0.4L 24 23.6a 0.4,0.4 0 0 0 0.4,0.4L 24.6 24a 0.4,0.4 0 0 1 0.4,0.4L 25 24.6a 0.4,0.4 0 0 1 -0.4,0.4L 22.4 25a 0.4,0.4 0 0 1 -0.4,-0.4L 22 24.4a 0.4,0.4 0 0 0 -0.4,-0.4L 19.4 24a 0.4,0.4 0 0 1 -0.4,-0.4L 19 23.4a 0.4,0.4 0 0 1 0.4,-0.4L 20.6 23a 0.4,0.4 0 0 0 0.4,-0.4L 21 22.4a 0.4,0.4 0 0 1 0.4,-0.4L 21.6 22a 0.4,0.4 0 0 1 0.4,0.4L 22 22.6a 0.4,0.4 0 0 0 0.4,0.4L 22.6 23a 0.4,0.4 0 0 0 0.4,-0.4L 23 22.4a 0.4,0.4 0 0 0 -0.4,-0.4L 22.4 22a 0.4,0.4 0 0 1 -0.4,-0.4L 22 21.4a 0.4,0.4 0 0 0 -0.4,-0.4L 20.4 21a 0.4,0.4 0 0 0 -0.4,0.4L 20 21.6a 0.4,0.4 0 0 1 -0.4,0.4L 19.4 22a 0.4,0.4 0 0 0 -0.4,0.4L 19 22.6a 0.4,0.4 0 0 1 -0.4,0.4L 18.4 23a 0.4,0.4 0 0 0 -0.4,0.4L 18 24.6a 0.4,0.4 0 0 1 -0.4,0.4L 17.4 25a 0.4,0.4 0 0 1 -0.4,-0.4L 17 22.4a 0.4,0.4 0 0 0 -0.4,-0.4L 15.4 22a 0.4,0.4 0 0 0 -0.4,0.4L 15 22.6a 0.4,0.4 0 0 0 0.4,0.4L 15.6 23a 0.4,0.4 0 0 1 0.4,0.4L 16 24.6a 0.4,0.4 0 0 1 -0.4,0.4L 15.4 25a 0.4,0.4 0 0 1 -0.4,-0.4L 15 24.4a 0.4,0.4 0 0 0 -0.4,-0.4L 14.4 24a 0.4,0.4 0 0 1 -0.4,-0.4L 14 23.4a 0.4,0.4 0 0 0 -0.4,-0.4L 13.4 23a 0.4,0.4 0 0 0 -0.4,0.4L 13 23.6a 0.4,0.4 0 0 0 0.4,0.4L 13.6 24a 0.4,0.4 0 0 1 0.4,0.4L 14 24.6a 0.4,0.4 0 0 1 -0.4,0.4L 12.4 25a 0.4,0.4 0 0 1 -0.4,-0.4L 12 23.4a 0.4,0.4 0 0 0 -0.4,-0.4L 10.4 23a 0.4,0.4 0 0 1 -0.4,-0.4L 10 22.4a 0.4,0.4 0 0 1 0.4,-0.4L 12.6 22a 0.4,0.4 0 0 0 0.4,-0.4L 13 21.4a 0.4,0.4 0 0 1 0.4,-0.4L 15.6 21a 0.4,0.4 0 0 0 0.4,-0.4L 16 16.4a 0.4,0.4 0 0 1 0.4,-0.4L 18.6 16a 0.4,0.4 0 0 0 0.4,-0.4L 19 15.4a 0.4,0.4 0 0 0 -0.4,-0.4L 18.4 15a 0.4,0.4 0 0 1 -0.4,-0.4L 18 14.4a 0.4,0.4 0 0 1 0.4,-0.4L 19.6 14a 0.4,0.4 0 0 0 0.4,-0.4zM 21 15.4a 0.4,0.4 0 0 1 0.4,-0.4L 21.6 15a 0.4,0.4 0 0 1 0.4,0.4L 22 15.6a 0.4,0.4 0 0 1 -0.4,0.4L 21.4 16a 0.4,0.4 0 0 1 -0.4,-0.4z M 17 17.4a 0.4,0.4 0 0 1 0.4,-0.4L 19.6 17a 0.4,0.4 0 0 1 0.4,0.4L 20 19.6a 0.4,0.4 0 0 1 -0.4,0.4L 17.4 20a 0.4,0.4 0 0 1 -0.4,-0.4z M 13 14.4a 0.4,0.4 0 0 1 0.4,-0.4L 13.6 14a 0.4,0.4 0 0 1 0.4,0.4L 14 14.6a 0.4,0.4 0 0 1 -0.4,0.4L 13.4 15a 0.4,0.4 0 0 1 -0.4,-0.4z M 7 15.4a 0.4,0.4 0 0 1 0.4,-0.4L 7.6 15a 0.4,0.4 0 0 1 0.4,0.4L 8 16.6a 0.4,0.4 0 0 1 -0.4,0.4L 5.4 17a 0.4,0.4 0 0 1 -0.4,-0.4L 5 16.4a 0.4,0.4 0 0 1 0.4,-0.4L 6.6 16a 0.4,0.4 0 0 0 0.4,-0.4z M 0 16.4a 0.4,0.4 0 0 1 0.4,-0.4L 1.6 16a 0.4,0.4 0 0 1 0.4,0.4L 2 16.6a 0.4,0.4 0 0 1 -0.4,0.4L 0.4 17a 0.4,0.4 0 0 1 -0.4,-0.4z M 3 16.4a 0.4,0.4 0 0 1 0.4,-0.4L 3.6 16a 0.4,0.4 0 0 1 0.4,0.4L 4 16.6a 0.4,0.4 0 0 1 -0.4,0.4L 3.4 17a 0.4,0.4 0 0 1 -0.4,-0.4z M 9 16.4a 0.4,0.4 0 0 1 0.4,-0.4L 9.6 16a 0.4,0.4 0 0 1 0.4,0.4L 10 16.6a 0.4,0.4 0 0 1 -0.4,0.4L 9.4 17a 0.4,0.4 0 0 1 -0.4,-0.4z M 13 16.4a 0.4,0.4 0 0 1 0.4,-0.4L 13.6 16a 0.4,0.4 0 0 1 0.4,0.4L 14 16.6a 0.4,0.4 0 0 0 0.4,0.4L 14.6 17a 0.4,0.4 0 0 1 0.4,0.4L 15 18.6a 0.4,0.4 0 0 1 -0.4,0.4L 13.4 19a 0.4,0.4 0 0 1 -0.4,-0.4z M 8 17.4a 0.4,0.4 0 0 1 0.4,-0.4L 8.6 17a 0.4,0.4 0 0 1 0.4,0.4L 9 17.6a 0.4,0.4 0 0 1 -0.4,0.4L 8.4 18a 0.4,0.4 0 0 1 -0.4,-0.4z M 10 17.4a 0.4,0.4 0 0 1 0.4,-0.4L 10.6 17a 0.4,0.4 0 0 1 0.4,0.4L 11 17.6a 0.4,0.4 0 0 0 0.4,0.4L 11.6 18a 0.4,0.4 0 0 1 0.4,0.4L 12 18.6a 0.4,0.4 0 0 1 -0.4,0.4L 11.4 19a 0.4,0.4 0 0 0 -0.4,0.4L 11 19.6a 0.4,0.4 0 0 1 -0.4,0.4L 9.4 20a 0.4,0.4 0 0 0 -0.4,0.4L 9 20.6a 0.4,0.4 0 0 1 -0.4,0.4L 8.4 21a 0.4,0.4 0 0 1 -0.4,-0.4L 8 19.4a 0.4,0.4 0 0 1 0.4,-0.4L 8.6 19a 0.4,0.4 0 0 0 0.4,-0.4L 9 18.4a 0.4,0.4 0 0 1 0.4,-0.4L 9.6 18a 0.4,0.4 0 0 0 0.4,-0.4z M 18 18.4a 0.4,0.4 0 0 1 0.4,-0.4L 18.6 18a 0.4,0.4 0 0 1 0.4,0.4L 19 18.6a 0.4,0.4 0 0 1 -0.4,0.4L 18.4 19a 0.4,0.4 0 0 1 -0.4,-0.4z M 11 20.4a 0.4,0.4 0 0 1 0.4,-0.4L 11.6 20a 0.4,0.4 0 0 1 0.4,0.4L 12 20.6a 0.4,0.4 0 0 1 -0.4,0.4L 11.4 21a 0.4,0.4 0 0 1 -0.4,-0.4z M 8 23.4a 0.4,0.4 0 0 1 0.4,-0.4L 8.6 23a 0.4,0.4 0 0 1 0.4,0.4L 9 23.6a 0.4,0.4 0 0 0 0.4,0.4L 9.6 24a 0.4,0.4 0 0 1 0.4,0.4L 10 24.6a 0.4,0.4 0 0 1 -0.4,0.4L 8.4 25a 0.4,0.4 0 0 1 -0.4,-0.4z"></path><path id="qr squares" d="M1.05,0h4.9a1.05,1.05 0 0 1 1.05,1.05v4.9a1.05,1.05 0 0 1 -1.05,1.05h-4.9a1.05,1.05 0 0 1 -1.05,-1.05v-4.9a1.05,1.05 0 0 1 1.05,-1.05zM1.75,1h3.5a0.75,0.75 0 0 1 0.75,0.75v3.5a0.75,0.75 0 0 1 -0.75,0.75h-3.5a0.75,0.75 0 0 1 -0.75,-0.75v-3.5a0.75,0.75 0 0 1 0.75,-0.75zM2.45,2h2.1a0.44999999999999996,0.44999999999999996 0 0 1 0.44999999999999996,0.44999999999999996v2.1a0.44999999999999996,0.44999999999999996 0 0 1 -0.44999999999999996,0.44999999999999996h-2.1a0.44999999999999996,0.44999999999999996 0 0 1 -0.44999999999999996,-0.44999999999999996v-2.1a0.44999999999999996,0.44999999999999996 0 0 1 0.44999999999999996,-0.44999999999999996z M19.05,0h4.9a1.05,1.05 0 0 1 1.05,1.05v4.9a1.05,1.05 0 0 1 -1.05,1.05h-4.9a1.05,1.05 0 0 1 -1.05,-1.05v-4.9a1.05,1.05 0 0 1 1.05,-1.05zM19.75,1h3.5a0.75,0.75 0 0 1 0.75,0.75v3.5a0.75,0.75 0 0 1 -0.75,0.75h-3.5a0.75,0.75 0 0 1 -0.75,-0.75v-3.5a0.75,0.75 0 0 1 0.75,-0.75zM20.45,2h2.1a0.44999999999999996,0.44999999999999996 0 0 1 0.44999999999999996,0.44999999999999996v2.1a0.44999999999999996,0.44999999999999996 0 0 1 -0.44999999999999996,0.44999999999999996h-2.1a0.44999999999999996,0.44999999999999996 0 0 1 -0.44999999999999996,-0.44999999999999996v-2.1a0.44999999999999996,0.44999999999999996 0 0 1 0.44999999999999996,-0.44999999999999996z M1.05,18h4.9a1.05,1.05 0 0 1 1.05,1.05v4.9a1.05,1.05 0 0 1 -1.05,1.05h-4.9a1.05,1.05 0 0 1 -1.05,-1.05v-4.9a1.05,1.05 0 0 1 1.05,-1.05zM1.75,19h3.5a0.75,0.75 0 0 1 0.75,0.75v3.5a0.75,0.75 0 0 1 -0.75,0.75h-3.5a0.75,0.75 0 0 1 -0.75,-0.75v-3.5a0.75,0.75 0 0 1 0.75,-0.75zM2.45,20h2.1a0.44999999999999996,0.44999999999999996 0 0 1 0.44999999999999996,0.44999999999999996v2.1a0.44999999999999996,0.44999999999999996 0 0 1 -0.44999999999999996,0.44999999999999996h-2.1a0.44999999999999996,0.44999999999999996 0 0 1 -0.44999999999999996,-0.44999999999999996v-2.1a0.44999999999999996,0.44999999999999996 0 0 1 0.44999999999999996,-0.44999999999999996z" fill-rule="evenodd" fill-opacity="1" fill="rgb(56, 142, 60)"></path></svg>