<svg id="Layer_1" data-name="Layer 1" xmlns="http://www.w3.org/2000/svg" xmlns:xlink="http://www.w3.org/1999/xlink" viewBox="0 0 1701 684.98"><defs><style>.cls-1,.cls-21,.cls-7,.cls-8,.cls-9{fill:none;}.cls-2{fill:#606161;}.cls-3{fill:#46b86e;}.cls-4{clip-path:url(#clip-path);}.cls-5{fill:#0096bf;opacity:0.5;}.cls-6{opacity:0.25;}.cls-21,.cls-7,.cls-8,.cls-9{stroke:#fff;stroke-miterlimit:10;}.cls-21,.cls-8,.cls-9{stroke-width:2px;}.cls-9{stroke-dasharray:12.22 12.22;}.cls-10{fill:#fff;}.cls-11{fill:#30435d;}.cls-12{fill:#263959;}.cls-13{fill:#d9dadb;}.cls-14{fill:#c0cdd5;}.cls-15{fill:#e31f4b;}.cls-16{fill:#898c8d;}.cls-17{fill:#f29b1f;}.cls-18{fill:#e57e25;}.cls-19{fill:#bf3d29;}.cls-20{fill:#8fcd9b;}.cls-21{stroke-dasharray:12;}.cls-22{clip-path:url(#clip-path-2);}</style><clipPath id="clip-path" transform="translate(0.5 162.77)"><rect class="cls-1" y="-0.71" width="1700" height="501.43"/></clipPath><clipPath id="clip-path-2" transform="translate(0.5 162.77)"><path class="cls-2" d="M1700-.71V500.71l-855.24-.35a45.54,45.54,0,0,1-.94-47.8c14-24.15,45.38-41.15,78.26-53s68.48-19.74,100.69-32.46,62-31.63,72.07-56.74c12.07-30.14-5-66.27,21.34-91.44,22.58-21.55,66.68-24.47,96.76-40.8,32.26-17.52,44.1-47.91,49.22-76.45s5.84-58.32,23.51-84.22A80.21,80.21,0,0,1,1301.13.86Z"/></clipPath></defs><title>yashil</title><rect class="cls-3" x="0.5" y="162.05" width="1499.14" height="501.43"/><g class="cls-4"><path class="cls-5" d="M1097.87-13.95C1080.14,17,1036,37.82,992.06,35.84c-22.19-1-44.16-7.22-66.16-4.72-29.22,3.33-52,21.44-67.31,40.87s-25.69,41.17-43.26,59.44c-39.55,41.16-110.78,58.48-177.2,55.95s-129.59-22-190.64-42.3c-26.3-8.73-52.85-17.74-81.15-21.05s-59.1-.26-81.76,13.21c-36.93,21.95-41.53,63-64.65,94.14-30.82,41.53-94.47,63.47-156.44,67A548.77,548.77,0,0,1,0,298V-125.12c302.74-57.23,623.07-37.45,935.16-17.08,49.53,3.24,103.32,7.9,139,34.56C1105.69-84,1115.59-44.94,1097.87-13.95Z" transform="translate(0.5 162.77)"/><path class="cls-5" d="M368.5,485.12a88,88,0,0,1,1-103.59c22.79-30.48,66.7-47.48,107.57-41.64,33.48,4.78,62.18,22.92,92.73,35.9C657.62,413.1,767.65,406,848.29,357.71c40.24-24.07,73.67-57.53,118.14-74.86,48.7-19,107.84-15.48,153.25,9s75.79,69.39,78.76,116.27c1.92,30.36-9.08,63.51-37.5,80.72-31,18.78-72.52,9.58-110.14,9.58Z" transform="translate(0.5 162.77)"/><g class="cls-6"><rect class="cls-7" x="0.5" y="162.05" width="80.95" height="62.68"/><rect class="cls-7" x="81.45" y="162.05" width="80.95" height="62.68"/><rect class="cls-7" x="162.4" y="162.05" width="80.95" height="62.68"/><rect class="cls-7" x="243.36" y="162.05" width="80.95" height="62.68"/><rect class="cls-7" x="324.31" y="162.05" width="80.95" height="62.68"/><rect class="cls-7" x="405.26" y="162.05" width="80.95" height="62.68"/><rect class="cls-7" x="486.21" y="162.05" width="80.95" height="62.68"/><rect class="cls-7" x="567.17" y="162.05" width="80.95" height="62.68"/><rect class="cls-7" x="648.12" y="162.05" width="80.95" height="62.68"/><rect class="cls-7" x="729.07" y="162.05" width="80.95" height="62.68"/><rect class="cls-7" x="810.02" y="162.05" width="80.95" height="62.68"/><rect class="cls-7" x="890.98" y="162.05" width="80.95" height="62.68"/><rect class="cls-7" x="971.93" y="162.05" width="80.95" height="62.68"/><rect class="cls-7" x="1052.88" y="162.05" width="80.95" height="62.68"/><rect class="cls-7" x="1133.83" y="162.05" width="80.95" height="62.68"/><rect class="cls-7" x="1214.79" y="162.05" width="80.95" height="62.68"/><rect class="cls-7" x="1295.74" y="162.05" width="80.95" height="62.68"/><rect class="cls-7" x="1376.69" y="162.05" width="80.95" height="62.68"/><rect class="cls-7" x="1457.64" y="162.05" width="80.95" height="62.68"/><rect class="cls-7" x="1538.6" y="162.05" width="80.95" height="62.68"/><rect class="cls-7" x="1619.55" y="162.05" width="80.95" height="62.68"/><rect class="cls-7" x="0.5" y="224.73" width="80.95" height="62.68"/><rect class="cls-7" x="81.45" y="224.73" width="80.95" height="62.68"/><rect class="cls-7" x="162.4" y="224.73" width="80.95" height="62.68"/><rect class="cls-7" x="243.36" y="224.73" width="80.95" height="62.68"/><rect class="cls-7" x="324.31" y="224.73" width="80.95" height="62.68"/><rect class="cls-7" x="405.26" y="224.73" width="80.95" height="62.68"/><rect class="cls-7" x="486.21" y="224.73" width="80.95" height="62.68"/><rect class="cls-7" x="567.17" y="224.73" width="80.95" height="62.68"/><rect class="cls-7" x="648.12" y="224.73" width="80.95" height="62.68"/><rect class="cls-7" x="729.07" y="224.73" width="80.95" height="62.68"/><rect class="cls-7" x="810.02" y="224.73" width="80.95" height="62.68"/><rect class="cls-7" x="890.98" y="224.73" width="80.95" height="62.68"/><rect class="cls-7" x="971.93" y="224.73" width="80.95" height="62.68"/><rect class="cls-7" x="1052.88" y="224.73" width="80.95" height="62.68"/><rect class="cls-7" x="1133.83" y="224.73" width="80.95" height="62.68"/><rect class="cls-7" x="1214.79" y="224.73" width="80.95" height="62.68"/><rect class="cls-7" x="1295.74" y="224.73" width="80.95" height="62.68"/><rect class="cls-7" x="1376.69" y="224.73" width="80.95" height="62.68"/><rect class="cls-7" x="1457.64" y="224.73" width="80.95" height="62.68"/><rect class="cls-7" x="1538.6" y="224.73" width="80.95" height="62.68"/><rect class="cls-7" x="1619.55" y="224.73" width="80.95" height="62.68"/><rect class="cls-7" x="0.5" y="287.41" width="80.95" height="62.68"/><rect class="cls-7" x="81.45" y="287.41" width="80.95" height="62.68"/><rect class="cls-7" x="162.4" y="287.41" width="80.95" height="62.68"/><rect class="cls-7" x="243.36" y="287.41" width="80.95" height="62.68"/><rect class="cls-7" x="324.31" y="287.41" width="80.95" height="62.68"/><rect class="cls-7" x="405.26" y="287.41" width="80.95" height="62.68"/><rect class="cls-7" x="486.21" y="287.41" width="80.95" height="62.68"/><rect class="cls-7" x="567.17" y="287.41" width="80.95" height="62.68"/><rect class="cls-7" x="648.12" y="287.41" width="80.95" height="62.68"/><rect class="cls-7" x="729.07" y="287.41" width="80.95" height="62.68"/><rect class="cls-7" x="810.02" y="287.41" width="80.95" height="62.68"/><rect class="cls-7" x="890.98" y="287.41" width="80.95" height="62.68"/><rect class="cls-7" x="971.93" y="287.41" width="80.95" height="62.68"/><rect class="cls-7" x="1052.88" y="287.41" width="80.95" height="62.68"/><rect class="cls-7" x="1133.83" y="287.41" width="80.95" height="62.68"/><rect class="cls-7" x="1214.79" y="287.41" width="80.95" height="62.68"/><rect class="cls-7" x="1295.74" y="287.41" width="80.95" height="62.68"/><rect class="cls-7" x="1376.69" y="287.41" width="80.95" height="62.68"/><rect class="cls-7" x="1457.64" y="287.41" width="80.95" height="62.68"/><rect class="cls-7" x="1538.6" y="287.41" width="80.95" height="62.68"/><rect class="cls-7" x="1619.55" y="287.41" width="80.95" height="62.68"/><rect class="cls-7" x="0.5" y="350.09" width="80.95" height="62.68"/><rect class="cls-7" x="81.45" y="350.09" width="80.95" height="62.68"/><rect class="cls-7" x="162.4" y="350.09" width="80.95" height="62.68"/><rect class="cls-7" x="243.36" y="350.09" width="80.95" height="62.68"/><rect class="cls-7" x="324.31" y="350.09" width="80.95" height="62.68"/><rect class="cls-7" x="405.26" y="350.09" width="80.95" height="62.68"/><rect class="cls-7" x="486.21" y="350.09" width="80.95" height="62.68"/><rect class="cls-7" x="567.17" y="350.09" width="80.95" height="62.68"/><rect class="cls-7" x="648.12" y="350.09" width="80.95" height="62.68"/><rect class="cls-7" x="729.07" y="350.09" width="80.95" height="62.68"/><rect class="cls-7" x="810.02" y="350.09" width="80.95" height="62.68"/><rect class="cls-7" x="890.98" y="350.09" width="80.95" height="62.68"/><rect class="cls-7" x="971.93" y="350.09" width="80.95" height="62.68"/><rect class="cls-7" x="1052.88" y="350.09" width="80.95" height="62.68"/><rect class="cls-7" x="1133.83" y="350.09" width="80.95" height="62.68"/><rect class="cls-7" x="1214.79" y="350.09" width="80.95" height="62.68"/><rect class="cls-7" x="1295.74" y="350.09" width="80.95" height="62.68"/><rect class="cls-7" x="1376.69" y="350.09" width="80.95" height="62.68"/><rect class="cls-7" x="1457.64" y="350.09" width="80.95" height="62.68"/><rect class="cls-7" x="1538.6" y="350.09" width="80.95" height="62.68"/><rect class="cls-7" x="1619.55" y="350.09" width="80.95" height="62.68"/><rect class="cls-7" x="0.5" y="412.77" width="80.95" height="62.68"/><rect class="cls-7" x="81.45" y="412.77" width="80.95" height="62.68"/><rect class="cls-7" x="162.4" y="412.77" width="80.95" height="62.68"/><rect class="cls-7" x="243.36" y="412.77" width="80.95" height="62.68"/><rect class="cls-7" x="324.31" y="412.77" width="80.95" height="62.68"/><rect class="cls-7" x="405.26" y="412.77" width="80.95" height="62.68"/><rect class="cls-7" x="486.21" y="412.77" width="80.95" height="62.68"/><rect class="cls-7" x="567.17" y="412.77" width="80.95" height="62.68"/><rect class="cls-7" x="648.12" y="412.77" width="80.95" height="62.68"/><rect class="cls-7" x="729.07" y="412.77" width="80.95" height="62.68"/><rect class="cls-7" x="810.02" y="412.77" width="80.95" height="62.68"/><rect class="cls-7" x="890.98" y="412.77" width="80.95" height="62.68"/><rect class="cls-7" x="971.93" y="412.77" width="80.95" height="62.68"/><rect class="cls-7" x="1052.88" y="412.77" width="80.95" height="62.68"/><rect class="cls-7" x="1133.83" y="412.77" width="80.95" height="62.68"/><rect class="cls-7" x="1214.79" y="412.77" width="80.95" height="62.68"/><rect class="cls-7" x="1295.74" y="412.77" width="80.95" height="62.68"/><rect class="cls-7" x="1376.69" y="412.77" width="80.95" height="62.68"/><rect class="cls-7" x="1457.64" y="412.77" width="80.95" height="62.68"/><rect class="cls-7" x="1538.6" y="412.77" width="80.95" height="62.68"/><rect class="cls-7" x="1619.55" y="412.77" width="80.95" height="62.68"/><rect class="cls-7" x="0.5" y="475.45" width="80.95" height="62.68"/><rect class="cls-7" x="81.45" y="475.45" width="80.95" height="62.68"/><rect class="cls-7" x="162.4" y="475.45" width="80.95" height="62.68"/><rect class="cls-7" x="243.36" y="475.45" width="80.95" height="62.68"/><rect class="cls-7" x="324.31" y="475.45" width="80.95" height="62.68"/><rect class="cls-7" x="405.26" y="475.45" width="80.95" height="62.68"/><rect class="cls-7" x="486.21" y="475.45" width="80.95" height="62.68"/><rect class="cls-7" x="567.17" y="475.45" width="80.95" height="62.68"/><rect class="cls-7" x="648.12" y="475.45" width="80.95" height="62.68"/><rect class="cls-7" x="729.07" y="475.45" width="80.95" height="62.68"/><rect class="cls-7" x="810.02" y="475.45" width="80.95" height="62.68"/><rect class="cls-7" x="890.98" y="475.45" width="80.95" height="62.68"/><rect class="cls-7" x="971.93" y="475.45" width="80.95" height="62.68"/><rect class="cls-7" x="1052.88" y="475.45" width="80.95" height="62.68"/><rect class="cls-7" x="1133.83" y="475.45" width="80.95" height="62.68"/><rect class="cls-7" x="1214.79" y="475.45" width="80.95" height="62.68"/><rect class="cls-7" x="1295.74" y="475.45" width="80.95" height="62.68"/><rect class="cls-7" x="1376.69" y="475.45" width="80.95" height="62.68"/><rect class="cls-7" x="1457.64" y="475.45" width="80.95" height="62.68"/><rect class="cls-7" x="1538.6" y="475.45" width="80.95" height="62.68"/><rect class="cls-7" x="1619.55" y="475.45" width="80.95" height="62.68"/><rect class="cls-7" x="0.5" y="538.13" width="80.95" height="62.68"/><rect class="cls-7" x="81.45" y="538.13" width="80.95" height="62.68"/><rect class="cls-7" x="162.4" y="538.13" width="80.95" height="62.68"/><rect class="cls-7" x="243.36" y="538.13" width="80.95" height="62.68"/><rect class="cls-7" x="324.31" y="538.13" width="80.95" height="62.68"/><rect class="cls-7" x="405.26" y="538.13" width="80.95" height="62.68"/><rect class="cls-7" x="486.21" y="538.13" width="80.95" height="62.68"/><rect class="cls-7" x="567.17" y="538.13" width="80.95" height="62.68"/><rect class="cls-7" x="648.12" y="538.13" width="80.95" height="62.68"/><rect class="cls-7" x="729.07" y="538.13" width="80.95" height="62.68"/><rect class="cls-7" x="810.02" y="538.13" width="80.95" height="62.68"/><rect class="cls-7" x="890.98" y="538.13" width="80.95" height="62.68"/><rect class="cls-7" x="971.93" y="538.13" width="80.95" height="62.68"/><rect class="cls-7" x="1052.88" y="538.13" width="80.95" height="62.68"/><rect class="cls-7" x="1133.83" y="538.13" width="80.95" height="62.68"/><rect class="cls-7" x="1214.79" y="538.13" width="80.95" height="62.68"/><rect class="cls-7" x="1295.74" y="538.13" width="80.95" height="62.68"/><rect class="cls-7" x="1376.69" y="538.13" width="80.95" height="62.68"/><rect class="cls-7" x="1457.64" y="538.13" width="80.95" height="62.68"/><rect class="cls-7" x="1538.6" y="538.13" width="80.95" height="62.68"/><rect class="cls-7" x="1619.55" y="538.13" width="80.95" height="62.68"/><rect class="cls-7" x="0.5" y="600.8" width="80.95" height="62.68"/><rect class="cls-7" x="81.45" y="600.8" width="80.95" height="62.68"/><rect class="cls-7" x="162.4" y="600.8" width="80.95" height="62.68"/><rect class="cls-7" x="243.36" y="600.8" width="80.95" height="62.68"/><rect class="cls-7" x="324.31" y="600.8" width="80.95" height="62.68"/><rect class="cls-7" x="405.26" y="600.8" width="80.95" height="62.68"/><rect class="cls-7" x="486.21" y="600.8" width="80.95" height="62.68"/><rect class="cls-7" x="567.17" y="600.8" width="80.95" height="62.68"/><rect class="cls-7" x="648.12" y="600.8" width="80.95" height="62.68"/><rect class="cls-7" x="729.07" y="600.8" width="80.95" height="62.68"/><rect class="cls-7" x="810.02" y="600.8" width="80.95" height="62.68"/><rect class="cls-7" x="890.98" y="600.8" width="80.95" height="62.68"/><rect class="cls-7" x="971.93" y="600.8" width="80.95" height="62.68"/><rect class="cls-7" x="1052.88" y="600.8" width="80.95" height="62.68"/><rect class="cls-7" x="1133.83" y="600.8" width="80.95" height="62.68"/><rect class="cls-7" x="1214.79" y="600.8" width="80.95" height="62.68"/><rect class="cls-7" x="1295.74" y="600.8" width="80.95" height="62.68"/><rect class="cls-7" x="1376.69" y="600.8" width="80.95" height="62.68"/><rect class="cls-7" x="1457.64" y="600.8" width="80.95" height="62.68"/><rect class="cls-7" x="1538.6" y="600.8" width="80.95" height="62.68"/><rect class="cls-7" x="1619.55" y="600.8" width="80.95" height="62.68"/></g><ellipse class="cls-8" cx="961.88" cy="472.4" rx="6.42" ry="5.66"/><ellipse class="cls-8" cx="986.83" cy="472.4" rx="6.42" ry="5.66"/><path class="cls-8" d="M1017.7,309.63c0,3.13-2.87,5.66-6.41,5.66s-6.42-2.53-6.42-5.66,2.87-5.65,6.42-5.65S1017.7,306.51,1017.7,309.63Z" transform="translate(0.5 162.77)"/><path class="cls-8" d="M967.79,290.14c0,3.13-2.87,5.66-6.41,5.66s-6.42-2.53-6.42-5.66,2.87-5.66,6.42-5.66S967.79,287,967.79,290.14Z" transform="translate(0.5 162.77)"/><path class="cls-8" d="M992.75,290.14c0,3.13-2.87,5.66-6.42,5.66s-6.41-2.53-6.41-5.66,2.87-5.66,6.41-5.66S992.75,287,992.75,290.14Z" transform="translate(0.5 162.77)"/><path class="cls-8" d="M1017.7,290.14c0,3.13-2.87,5.66-6.41,5.66s-6.42-2.53-6.42-5.66,2.87-5.66,6.42-5.66S1017.7,287,1017.7,290.14Z" transform="translate(0.5 162.77)"/><path class="cls-8" d="M967.79,270.65c0,3.13-2.87,5.66-6.41,5.66s-6.42-2.53-6.42-5.66,2.87-5.66,6.42-5.66S967.79,267.53,967.79,270.65Z" transform="translate(0.5 162.77)"/><path class="cls-8" d="M992.75,270.65c0,3.13-2.87,5.66-6.42,5.66s-6.41-2.53-6.41-5.66,2.87-5.66,6.41-5.66S992.75,267.53,992.75,270.65Z" transform="translate(0.5 162.77)"/><path class="cls-8" d="M1017.7,270.65c0,3.13-2.87,5.66-6.41,5.66s-6.42-2.53-6.42-5.66,2.87-5.66,6.42-5.66S1017.7,267.53,1017.7,270.65Z" transform="translate(0.5 162.77)"/><path class="cls-8" d="M537,437.46c24.2,0,24.2,20,48.4,20s24.2-20,48.41-20,24.2,20,48.4,20,24.2-20,48.41-20,24.2,20,48.41,20" transform="translate(0.5 162.77)"/><path class="cls-8" d="M9.23,116.18a37.9,37.9,0,0,1,6,.45" transform="translate(0.5 162.77)"/><path class="cls-9" d="M26.55,121c9.34,5.92,14.59,15.21,31.09,15.21,24.2,0,24.2-20,48.4-20s24.2,20,48.4,20,24.2-20,48.41-20c19.42,0,23.26,12.88,36.53,18" transform="translate(0.5 162.77)"/><path class="cls-8" d="M245.28,135.72a36.7,36.7,0,0,0,6,.46" transform="translate(0.5 162.77)"/><path class="cls-10" d="M1066.38,147l-1-1.31a21.91,21.91,0,0,0,.91-27A27.36,27.36,0,0,0,1049.21,108a30.29,30.29,0,0,0-20.62,3.18,24.28,24.28,0,0,0-12,15.11,21.62,21.62,0,0,0,3.61,18.19,27.34,27.34,0,0,0,17.12,10.6,30.93,30.93,0,0,0,11,.17l1,1.31a4.63,4.63,0,0,0,2.89,1.79l.17,0L1065,176l14.64-8.2L1067,150.18A3.65,3.65,0,0,0,1066.38,147Z" transform="translate(0.5 162.77)"/><polygon class="cls-11" points="1075.27 329.57 1066.55 334.45 1049.81 311.21 1058.53 306.33 1075.27 329.57"/><path class="cls-12" d="M1058.34,143.39l-9.34,5.23a.9.9,0,0,0-.34,1.34l3.56,4.95a1.2,1.2,0,0,0,1.52.3l9.34-5.24a.9.9,0,0,0,.34-1.34l-3.56-4.94A1.18,1.18,0,0,0,1058.34,143.39Z" transform="translate(0.5 162.77)"/><ellipse class="cls-11" cx="1043.75" cy="294.31" rx="23.85" ry="21.03"/><ellipse class="cls-10" cx="1043.75" cy="294.31" rx="19.42" ry="17.13"/><path class="cls-13" d="M1052.82,116.64a16.56,16.56,0,0,1,2.13,2.44c5.76,8,3.08,18.57-6,23.64a21.64,21.64,0,0,1-20,.45c6.24,6,16.62,7.34,24.67,2.83,9-5.07,11.73-15.65,6-23.64A18.61,18.61,0,0,0,1052.82,116.64Z" transform="translate(0.5 162.77)"/><path class="cls-10" d="M97.62,457.47a11.4,11.4,0,0,1-4.49,7.18h0a14.3,14.3,0,0,1-8.66,2.91,11.87,11.87,0,0,1-8.42-3.3l-37.38-37.9a7.41,7.41,0,0,1-7.55-1.55,5.35,5.35,0,0,1-1.53-4.62,6.3,6.3,0,0,1,2.48-4l15.17-11.63c3-2.27,7.36-2.1,9.79.37a5.4,5.4,0,0,1,.69,6.81l37.38,37.91A9.06,9.06,0,0,1,97.62,457.47Z" transform="translate(0.5 162.77)"/><path class="cls-14" d="M38.6,420.86l40.5,41.06A7.42,7.42,0,0,0,84.46,464a9.91,9.91,0,0,0,6-2C94,459.21,94.73,454.76,92,452L51.52,411Z" transform="translate(0.5 162.77)"/><path class="cls-15" d="M66.26,429.57l23.7,24c1.84,1.87,1.36,4.9-1.06,6.76s-5.9,1.85-7.74,0l-31-31.44Z" transform="translate(0.5 162.77)"/><polygon class="cls-16" points="39.1 583.63 41.1 585.66 54.02 575.75 52.02 573.72 39.1 583.63"/><path class="cls-14" d="M34.72,418.91l15.15-11.62a3.18,3.18,0,0,1,4.08,0,2.36,2.36,0,0,1-.56,3.56L38.23,422.48a3.18,3.18,0,0,1-4.07,0A2.36,2.36,0,0,1,34.72,418.91Z" transform="translate(0.5 162.77)"/><path class="cls-10" d="M52.21,419.36a1,1,0,0,1,1.33,0L87.66,454a.77.77,0,0,1-.18,1.16,1,1,0,0,1-1.33,0L52,420.52A.76.76,0,0,1,52.21,419.36Z" transform="translate(0.5 162.77)"/><path class="cls-10" d="M546,58.28l-2.4,2.49-4.83,5-1.33,1.39-10.71,11.1-6.16,6.38-1.07,1.11-4.82,5-1.33,1.38-3.49,3.62-1.32,1.37-1.08,1.12-12.16,12.61H612.37L553.84,50.17Zm20.6,33.92H541.06L553.84,79Z" transform="translate(0.5 162.77)"/><path class="cls-17" d="M553.84,55.24l-5,5.16-1.33,1.4-1.07,1.11-1.34,1.38L544,65.4l-1.34,1.39-1.07,1.11-1.34,1.39-1.07,1.11-1.33,1.38-1.08,1.12-1.34,1.38-1.07,1.11-1.34,1.39L532,77.89l-1.34,1.39-1.07,1.11-1.33,1.39-1.08,1.11-1.33,1.38-1.07,1.11-1.35,1.39-1.06,1.11L521,89.27,520,90.38l-1.35,1.39-1.06,1.1-1.34,1.4-1.07,1.1-1.34,1.39-1.07,1.11-1.34,1.39-1.07,1.11L509,101.76l-5.59,5.8H604.3ZM533,95.49l20.85-21.61,20.84,21.61Z" transform="translate(0.5 162.77)"/><polygon class="cls-18" points="554.34 236.65 533.49 258.25 554.34 258.25 554.34 270.33 503.88 270.33 509.47 264.53 510.81 263.14 511.88 262.03 513.22 260.64 514.29 259.53 515.63 258.14 516.7 257.03 518.04 255.64 519.11 254.54 520.45 253.15 521.51 252.04 522.86 250.65 523.92 249.54 525.26 248.15 526.34 247.04 527.67 245.66 528.75 244.55 530.08 243.16 531.15 242.05 532.49 240.66 533.56 239.55 534.9 238.16 535.97 237.05 537.31 235.67 538.38 234.55 539.72 233.16 540.79 232.06 542.13 230.67 543.2 229.56 544.54 228.17 545.61 227.06 546.95 225.68 548.02 224.56 549.35 223.17 554.34 218.01 554.34 236.65"/><path class="cls-19" d="M552.45,63.2l-3.6-2.8-1.33,1.4c1.19.92,2.37,1.85,3.57,2.77C551.84,65.14,553.2,63.78,552.45,63.2Zm-6-.29-1.34,1.38L548.63,67c.75.57,2.11-.79,1.37-1.37ZM544,65.4l-1.34,1.39c1.38,1.08,2.78,2.15,4.17,3.23l.85.67c.74.57,2.1-.8,1.37-1.38Zm-2.41,2.5-1.34,1.39L543.73,72c.74.58,2.1-.79,1.36-1.36Zm-2.41,2.5-1.33,1.38c1.12.89,2.25,1.76,3.39,2.64.73.57,2.09-.8,1.35-1.37Zm-2.41,2.5-1.34,1.38,4,3.13.85.66c.75.57,2.11-.79,1.37-1.37Zm-2.41,2.49-1.34,1.39,3.3,2.56c.74.58,2.11-.79,1.36-1.37ZM532,77.89l-1.34,1.39,3.25,2.52c.75.58,2.12-.79,1.37-1.36Zm-2.41,2.5-1.33,1.39,3.89,3c.28.23.56.45.86.67.73.57,2.09-.8,1.35-1.37Zm-2.41,2.5-1.33,1.38L529,86.73c.74.57,2.1-.79,1.36-1.37Zm-2.4,2.49-1.35,1.39,3.12,2.42c.74.57,2.1-.8,1.37-1.37C526.86,87,525.81,86.2,524.77,85.38Zm-2.41,2.5L521,89.27l3.76,2.91.85.66c.75.58,2.11-.79,1.36-1.37ZM520,90.38l-1.35,1.39,3,2.34c.75.58,2.11-.79,1.36-1.37Zm-2.41,2.49-1.34,1.4,3,2.3c.75.58,2.11-.79,1.36-1.37Zm-2.41,2.5-1.34,1.39,3.62,2.81.85.66c.74.57,2.1-.79,1.37-1.37Zm-2.41,2.5-1.34,1.39,2.89,2.24c.74.57,2.11-.79,1.36-1.37Zm-2.41,2.5L509,101.76l2.84,2.2c.74.58,2.11-.8,1.37-1.36Z" transform="translate(0.5 162.77)"/><path class="cls-20" d="M798.71-45.48c-14.88,26.37-11.6,60,8.16,83.72S862,74.83,895,70.23c39.06-5.45,71.34-32.59,110.68-36.12,24.89-2.23,49.54,5.35,72.29,14.53s44.85,20.14,69.15,25.38,52,3.92,71.62-9.74c25.65-17.83,30.16-50.27,29.64-79.07-.18-10.09-1.46-21.49-10.43-27.74-6.94-4.82-16.5-5.1-25.33-5.16q-112.08-.8-224.22-1Z" transform="translate(0.5 162.77)"/><path class="cls-21" d="M775.38-52.56c-14.88,26.38-11.6,60,8.16,83.73s55.12,36.59,88.12,32C910.72,57.71,943,30.57,982.34,27c24.89-2.23,49.54,5.35,72.29,14.52S1099.49,61.7,1123.78,67s52,3.92,71.62-9.74c25.65-17.83,30.16-50.27,29.64-79.07-.18-10.09-1.46-21.49-10.43-27.74-6.94-4.83-16.49-5.1-25.33-5.16q-112.08-.81-224.22-1Z" transform="translate(0.5 162.77)"/><path class="cls-20" d="M157.42,520.61c-2.82-13.58-5.65-27.43-3.62-41.12s9.75-27.45,23.43-34.16c19-9.3,42.79-2.73,61.92,6.29s38,20.67,59.7,21.41c22.77.78,43.4-10.61,64.38-18.44s47.86-11.42,64.45,2.35c9.47,7.86,13.28,19.91,13,31.38s-3.51,22.93-7.35,33.89Z" transform="translate(0.5 162.77)"/><path class="cls-8" d="M164.71,509c-2.82-13.59-5.65-27.43-3.62-41.12s9.75-27.45,23.43-34.16c19-9.3,42.79-2.74,61.92,6.29s38,20.67,59.7,21.41c22.77.78,43.4-10.61,64.38-18.44s47.86-11.42,64.45,2.35c9.47,7.86,13.28,19.91,13,31.38s-3.51,22.93-7.35,33.89Z" transform="translate(0.5 162.77)"/><polygon class="cls-10" points="109.34 215.03 109.34 234.03 87.8 229.45 87.8 210.44 109.34 215.03"/><polygon class="cls-10" points="134.28 210.44 134.28 229.45 112.73 234.03 112.73 215.03 134.28 210.44"/><polygon class="cls-10" points="87.8 231.34 109.34 235.94 109.34 238.5 87.8 233.9 87.8 231.34"/><polygon class="cls-10" points="112.73 235.94 134.28 231.34 134.28 233.91 112.73 238.5 112.73 235.94"/><polygon class="cls-10" points="851.11 333.95 840.52 297.3 882.88 305.93 851.11 333.95"/></g><path class="cls-2" d="M1700-.71V500.71l-855.24-.35a45.54,45.54,0,0,1-.94-47.8c14-24.15,45.38-41.15,78.26-53s68.48-19.74,100.69-32.46,62-31.63,72.07-56.74c12.07-30.14-5-66.27,21.34-91.44,22.58-21.55,66.68-24.47,96.76-40.8,32.26-17.52,44.1-47.91,49.22-76.45s5.84-58.32,23.51-84.22A80.21,80.21,0,0,1,1301.13.86Z" transform="translate(0.5 162.77)"/><g class="cls-22"><image width="2499" height="1404" transform="translate(696.93 162.77) scale(0.4 0.36)" xlink:href="200730144646-journal-lead.jpg"/></g></svg>